<svg width="220" height="204" viewBox="0 0 220 204" fill="none" xmlns="http://www.w3.org/2000/svg">
<path d="M7.25739 165.817C10.472 168.121 6.13369 164.398 9.1426 167.342C5.10076 167.173 8.3155 164.819 5.14261 166.342C0.278135 168.734 3.65697 169.587 2.97282 165.342C2.06681 160.248 -1.48627 167.904 1.64261 162.342C2.96688 166.793 0.164929 158.878 2.97282 162.887C10.7397 153.659 20.464 148.45 32.3607 147.47C46.1709 146.469 58.1324 151.442 69.4793 158.548C73.334 161.058 77.191 163.78 80.8355 166.504C88.9817 172.582 96.9199 179.087 105.066 185.165C140.866 211.779 177.041 194.799 195.923 171.417C213.55 149.962 217.312 124.405 214.889 97.2145C211.778 65.3536 198.288 37.2205 184.796 8.87481C183.708 6.54772 182.619 4.22063 181.531 1.89354C181.316 1.68325 181.522 1.04311 181.727 0.402975C182.157 0.823556 182.797 1.02921 183.014 1.45211C199.702 30.4009 214.484 60.0083 218.679 93.7711C221.698 117.128 219.394 139.904 208.57 161.285C191.295 195.495 142.687 222.816 97.4216 186.098C87.5536 178.126 77.8937 169.726 66.9767 163.04C54.3449 155.098 40.8858 149.291 25.6245 153.71C18.2041 155.704 11.648 158.965 7.25739 165.817Z" fill="black"/>
</svg>
